<?xml version="1.0" encoding="utf-8"?>
<!-- Generator: Adobe Illustrator 14.0.0, SVG Export Plug-In . SVG Version: 6.00 Build 43363)  -->
<!DOCTYPE svg PUBLIC "-//W3C//DTD SVG 1.1//EN" "http://www.w3.org/Graphics/SVG/1.1/DTD/svg11.dtd">
<svg version="1.1" id="Layer_1" xmlns="http://www.w3.org/2000/svg" xmlns:xlink="http://www.w3.org/1999/xlink" x="0px" y="0px"
	 width="64px" height="52.5px" viewBox="0 0 64 52.5" enable-background="new 0 0 64 52.5" xml:space="preserve">
<linearGradient id="SVGID_1_" gradientUnits="userSpaceOnUse" x1="29.7612" y1="50.2344" x2="29.7612" y2="27.9639">
	<stop  offset="0" style="stop-color:#000000"/>
	<stop  offset="1" style="stop-color:#707070"/>
</linearGradient>
<path fill="url(#SVGID_1_)" stroke="#000000" stroke-width="0.2656" stroke-miterlimit="10" d="M22.546,29.494l2.84,2.869
	c-1.922,1.818-2.884,3.938-2.884,6.356c0,2.109,0.7,3.878,2.098,5.3c1.399,1.424,3.098,2.137,5.097,2.137
	c2.068,0,3.821-0.74,5.258-2.219c1.438-1.478,2.154-3.301,2.154-5.469c0-1.406-0.295-2.597-0.887-3.563
	c-0.596-0.969-2.558-2.654-4.6-2.821v6.687h-3.872V27.993l3.872-0.029c1.785,0.24,2.538,0.487,4.218,1.457
	c1.681,0.972,2.964,2.229,3.847,3.772c0.883,1.545,1.326,3.354,1.326,5.433c0,2.224-0.484,4.204-1.449,5.949
	c-0.967,1.741-2.342,3.12-4.131,4.135c-1.785,1.017-3.712,1.524-5.783,1.524c-2.834,0-5.302-0.938-7.399-2.813
	c-2.496-2.223-3.744-5.117-3.744-8.682c0-1.863,0.345-3.607,1.034-5.229C20.128,32.146,21.127,30.805,22.546,29.494z"/>
<linearGradient id="SVGID_2_" gradientUnits="userSpaceOnUse" x1="29.7622" y1="24.5088" x2="29.7622" y2="20.46">
	<stop  offset="0" style="stop-color:#AF0000"/>
	<stop  offset="1" style="stop-color:#D72727"/>
</linearGradient>
<path fill="url(#SVGID_2_)" stroke="#640000" stroke-width="0.2656" stroke-miterlimit="10" d="M19.05,24.509V20.46h21.425v4.049
	H19.05z"/>
<linearGradient id="SVGID_3_" gradientUnits="userSpaceOnUse" x1="29.7622" y1="18.4341" x2="29.7622" y2="2.0229">
	<stop  offset="0" style="stop-color:#008C10"/>
	<stop  offset="1" style="stop-color:#27D227"/>
</linearGradient>
<polygon fill="url(#SVGID_3_)" stroke="#006400" stroke-width="0.2656" stroke-miterlimit="10" points="40.475,8.203 31.773,8.203 
	31.773,2.023 27.753,2.023 27.753,8.203 19.05,8.203 19.05,12.254 27.753,12.254 27.753,18.434 31.773,18.434 31.773,12.254 
	40.475,12.254 "/>
<linearGradient id="SVGID_4_" gradientUnits="userSpaceOnUse" x1="9.1221" y1="49.2402" x2="9.1221" y2="27.8125">
	<stop  offset="0" style="stop-color:#000000"/>
	<stop  offset="1" style="stop-color:#707070"/>
</linearGradient>
<path fill="url(#SVGID_4_)" stroke="#000000" stroke-width="0.2656" stroke-miterlimit="10" d="M2.415,49.236V27.813h3.368
	c1.954,0,3.384,0.127,4.288,0.379c1.284,0.339,2.304,0.972,3.063,1.894c0.759,0.922,1.137,2.011,1.137,3.265
	c0,0.813-0.172,1.555-0.518,2.221c-0.344,0.666-0.905,1.289-1.681,1.871c1.301,0.61,2.252,1.377,2.854,2.293
	c0.602,0.918,0.903,2.004,0.903,3.256c0,1.205-0.311,2.302-0.934,3.293c-0.623,0.99-1.424,1.73-2.406,2.222
	c-0.982,0.489-2.337,0.735-4.069,0.735L2.415,49.236L2.415,49.236z M6.492,31.7v4.515h0.892c0.994,0,1.732-0.209,2.216-0.626
	c0.481-0.417,0.723-0.985,0.723-1.703c0-0.67-0.229-1.202-0.688-1.596c-0.458-0.394-1.155-0.59-2.09-0.59H6.492z M6.492,39.855
	v5.492h1.022c1.695,0,2.836-0.216,3.425-0.643c0.588-0.43,0.884-1.05,0.884-1.864c0-0.922-0.347-1.649-1.037-2.186
	c-0.692-0.533-1.841-0.802-3.447-0.802H6.492V39.855z"/>
<linearGradient id="SVGID_5_" gradientUnits="userSpaceOnUse" x1="52.46" y1="49.2383" x2="52.46" y2="27.8125">
	<stop  offset="0" style="stop-color:#000000"/>
	<stop  offset="1" style="stop-color:#707070"/>
</linearGradient>
<path fill="url(#SVGID_5_)" stroke="#000000" stroke-width="0.2656" stroke-miterlimit="10" d="M43.378,27.813h4.589l4.504,6.881
	l4.512-6.881h4.584L54.766,38.2l7.229,11.038h-4.59l-4.93-7.533l-4.931,7.533h-4.618l7.245-11.047L43.378,27.813z"/>
</svg>
